<?xml version="1.0" encoding="utf-8"?><!-- Uploaded to: SVG Repo, www.svgrepo.com, Generator: SVG Repo Mixer Tools -->
<svg fill="#000000" width="800px" height="800px" viewBox="0 0 24 24" id="lock-file" data-name="Flat Color" xmlns="http://www.w3.org/2000/svg" class="icon flat-color"><path id="primary" d="M21.71,4.29l-2-2A1,1,0,0,0,19,2H8A2,2,0,0,0,6,4V8a8.51,8.51,0,0,1,8.5,8.5,8.41,8.41,0,0,1-2,5.5H20a2,2,0,0,0,2-2V5A1,1,0,0,0,21.71,4.29Z" style="fill: rgb(0, 0, 0);"></path><path id="secondary" d="M10,14v-.87a3.09,3.09,0,0,0-2.4-3.07A3,3,0,0,0,4,13v1a2,2,0,0,0-2,2v4a2,2,0,0,0,2,2h6a2,2,0,0,0,2-2V16A2,2,0,0,0,10,14ZM6,13a1,1,0,0,1,2,0v1H6ZM19,2a1,1,0,0,1,.71.29l2,2A1,1,0,0,1,22,5H20a1,1,0,0,1-1-1Z" style="fill: rgb(44, 169, 188);"></path></svg>