<?xml version="1.0" standalone="no"?>
<!DOCTYPE svg PUBLIC "-//W3C//DTD SVG 20010904//EN"
 "http://www.w3.org/TR/2001/REC-SVG-20010904/DTD/svg10.dtd">
<svg version="1.0" xmlns="http://www.w3.org/2000/svg"
 width="512.000000pt" height="512.000000pt" viewBox="0 0 512.000000 512.000000"
 preserveAspectRatio="xMidYMid meet">

<g transform="translate(0.000000,512.000000) scale(0.100000,-0.100000)"
fill="#000000" stroke="none">
<path d="M579 5098 c-20 -11 -46 -38 -58 -58 l-21 -38 0 -1721 c0 -1708 0
-1721 20 -1741 33 -33 75 -30 107 6 l23 25 0 1700 0 1699 1530 0 1530 0 0 -90
0 -90 -776 0 -776 0 -30 -30 c-24 -25 -29 -36 -23 -58 3 -15 14 -35 22 -44 15
-17 77 -18 967 -20 l951 -3 3 -1404 2 -1403 -22 5 c-13 3 -59 15 -103 27 -47
12 -126 24 -190 27 -440 22 -839 -273 -956 -707 -30 -112 -33 -348 -6 -450 38
-138 74 -219 143 -318 24 -35 44 -65 44 -67 0 -3 -445 -5 -990 -5 l-990 0 0
1859 0 1859 228 4 c250 3 269 8 316 71 20 27 21 44 26 265 l5 237 158 5 c142
4 160 7 173 24 23 33 18 82 -12 105 -26 21 -37 21 -468 21 -408 0 -444 -2
-482 -19 -23 -10 -52 -34 -65 -52 l-24 -34 -3 -2007 -2 -2008 -90 0 -90 0 0
294 c0 292 0 295 -23 320 -32 36 -74 39 -107 6 -19 -19 -20 -33 -20 -336 0
-304 1 -318 21 -354 36 -63 79 -80 203 -80 l106 0 0 -102 c0 -114 18 -166 68
-203 27 -20 47 -20 1132 -25 l1105 -5 74 -47 c88 -57 212 -103 328 -123 451
-79 899 187 1049 622 47 137 44 178 -15 202 -45 19 -87 -7 -101 -62 -38 -149
-107 -276 -205 -378 -371 -386 -1002 -305 -1264 162 -239 425 -27 976 437
1133 305 104 638 14 855 -231 81 -92 143 -214 177 -350 14 -55 56 -81 101 -62
59 24 62 65 15 202 -60 173 -173 331 -315 439 l-66 50 -5 1466 -5 1467 -22 35
c-37 60 -73 74 -200 78 l-113 4 0 105 c0 123 -17 167 -80 202 l-38 21 -1563 0
-1564 0 -36 -22z m561 -613 l-155 -155 -3 142 c-1 78 0 148 2 155 4 10 42 13
158 13 l153 0 -155 -155z m260 -115 l0 -150 -152 0 -153 0 150 150 c82 83 151
150 152 150 2 0 3 -67 3 -150z"/>
<path d="M1777 4192 c-24 -27 -22 -85 4 -108 20 -18 49 -19 703 -22 374 -2
696 0 714 3 66 12 95 82 52 125 -20 20 -33 20 -738 20 -684 0 -720 -1 -735
-18z"/>
<path d="M1482 3523 c-7 -3 -19 -17 -27 -33 -19 -36 -4 -83 31 -99 18 -8 301
-11 1033 -11 1005 0 1008 0 1035 21 34 27 36 77 3 107 l-23 22 -1020 -1 c-560
0 -1025 -3 -1032 -6z"/>
<path d="M1474 3087 c-35 -31 -38 -82 -5 -109 19 -15 41 -18 120 -18 89 0 99
2 119 23 29 31 28 72 -3 102 -22 23 -32 25 -114 25 -80 0 -93 -3 -117 -23z"/>
<path d="M1905 3085 c-32 -31 -33 -74 -2 -103 l23 -22 805 0 c797 0 805 0 827
20 32 30 30 82 -4 109 -27 21 -33 21 -826 21 l-799 0 -24 -25z"/>
<path d="M1495 2681 c-49 -20 -64 -83 -30 -121 18 -20 29 -20 1047 -20 1015 0
1028 0 1048 20 25 25 26 71 1 101 l-19 24 -1014 2 c-557 1 -1022 -2 -1033 -6z"/>
<path d="M1469 2242 c-33 -28 -30 -78 6 -109 26 -23 35 -25 123 -21 84 3 96 5
113 27 26 32 24 73 -4 99 -21 19 -34 22 -119 22 -78 0 -100 -3 -119 -18z"/>
<path d="M1902 2237 c-27 -29 -28 -67 -3 -98 l19 -24 810 0 c782 0 811 1 831
19 27 25 28 79 1 106 -20 20 -33 20 -828 20 l-809 0 -21 -23z"/>
<path d="M1482 1833 c-25 -10 -43 -60 -32 -89 21 -55 -2 -53 651 -54 598 0
607 0 633 21 34 27 36 77 3 107 l-23 22 -610 -1 c-335 0 -615 -3 -622 -6z"/>
<path d="M1474 1397 c-35 -31 -38 -82 -5 -109 18 -14 40 -18 101 -18 86 0 114
14 126 62 5 22 0 33 -24 58 -28 28 -36 30 -101 30 -59 0 -74 -4 -97 -23z"/>
<path d="M1905 1395 c-32 -31 -33 -74 -2 -103 20 -19 35 -22 104 -22 76 0 83
2 102 26 28 35 26 69 -4 99 -21 22 -33 25 -100 25 -67 0 -79 -3 -100 -25z"/>
<path d="M2350 1407 c-14 -7 -28 -26 -34 -45 -7 -27 -6 -38 11 -60 19 -25 26
-27 106 -30 76 -2 89 0 107 18 30 30 27 83 -6 109 -21 17 -41 21 -93 21 -36 0
-77 -6 -91 -13z"/>
<path d="M3830 1015 c-128 -135 -234 -245 -237 -245 -3 0 -64 61 -137 135
-142 147 -158 155 -210 114 -19 -15 -26 -29 -26 -57 0 -33 13 -49 172 -209
152 -152 176 -173 204 -173 30 0 58 27 303 286 241 253 271 289 271 318 0 41
-35 76 -77 76 -27 0 -58 -28 -263 -245z"/>
<path d="M1495 991 c-49 -20 -64 -83 -30 -121 18 -20 30 -20 541 -20 l523 0
15 22 c23 32 20 81 -5 104 -20 18 -45 19 -523 21 -275 1 -510 -2 -521 -6z"/>
</g>
</svg>
