<?xml version="1.0" standalone="yes"?>
<svg xmlns="http://www.w3.org/2000/svg" width="512" height="512">
<path style="fill:#fdfdfd; stroke:none;" d="M0 0L0 45L1 45C2.82548 24.0913 24.0913 2.8255 45 1C33.2988 -3.90997 12.742 0 0 0z"/>
<path style="fill:#01c4cc; stroke:none;" d="M209 304C209 267.134 205.918 221.081 252 210.428C268.407 206.636 287.22 209 304 209L304 162C304 156.703 302.299 147.781 305.603 143.3C314.544 131.179 334.731 121.753 347 113C354.46 107.678 362.286 101.236 359.2 91.0008C356.988 83.6638 349.867 79.6161 344 75.4213C331.759 66.6698 318.723 58.5935 307.044 49.1011C301.216 44.364 300.958 36.4552 297.73 30C292.854 20.2485 285.454 12.3397 276 6.87576C259.349 -2.74762 239.472 0 221 0L115 0C79.8307 0 31.5198 -9.86523 8.74923 24C-4.05653 43.0451 0 68.2068 0 90L0 205C0 222.619 -3.20703 243.844 0.89892 261C5.619 280.722 20.5323 296.085 40 301.572C58.4171 306.762 80.0415 304 99 304L209 304z"/>
<path style="fill:#fdfdfd; stroke:none;" d="M259 0L259 1C275.035 4.31848 288.819 14.5875 296.688 29C299.628 34.3863 300.201 41.8961 303.738 46.6999C311.077 56.6658 326.962 63.9807 337 71.1412C345.35 77.0975 362.204 85.3128 359.452 98C357.864 105.321 350.663 109.671 345 113.709C333.183 122.135 314.449 130.974 305.603 142.465C302.269 146.797 304 155.815 304 161L304 208L408 208C427.319 208 447.927 206.001 467 209.465C488.07 213.291 507.814 231.425 511 253L512 253L512 0L259 0z"/>
<path style="fill:#a2e5cd; stroke:none;" d="M150 92L150 93L154 93L150 92M147 93L146 95L147 93z"/>
<path style="fill:#fdfdfd; stroke:none;" d="M143 122L110 122C105.38 122.009 100.106 121.96 98.1883 127.094C92.9786 141.044 113.077 134.733 116.987 140.318C120.855 145.843 121.306 156.5 124.012 163C127.532 171.458 134.269 177.852 138 186C130.541 188.132 123.647 191.445 116 193.115C111.566 194.083 106.124 193.175 102.055 195.318C95.5762 198.729 96.7176 208.399 104.015 209.772C115.06 211.849 127.955 207.871 138 203.573C141.956 201.88 147.24 197.298 151.576 197.298C155.32 197.298 159.671 201.155 163 202.691C170.245 206.033 178.082 208.571 186 209.7C190.418 210.33 197.859 211.128 201.867 208.821C206.852 205.951 206.337 198.921 201.867 195.858C197.854 193.109 191.634 193.935 187 192.996C179.099 191.395 172.364 188.066 165 185C171.617 176.072 177.731 167.549 181.564 157C183.269 152.308 183.248 143.144 186.742 139.603C190.076 136.223 196.741 138.873 200.892 136.991C204.961 135.146 206.633 130.053 204.529 126.109C202.022 121.41 196.545 122.002 192 122L160 122C160 114.773 162.56 101.211 157.297 95.4337C153.411 91.1681 146.274 93.1388 144.148 98.0941C141.252 104.845 143 114.779 143 122z"/>
<path style="fill:#a2e5cd; stroke:none;" d="M155 93L156 94L155 93M144 96L145 97L144 96M158 96L159 97L158 96M159 97L159 100L160 100L159 97M143.333 98.6667L143.667 99.3333L143.333 98.6667z"/>
<path style="fill:#55e361; stroke:none;" d="M103 121L104 122L103 121z"/>
<path style="fill:#a2e5cd; stroke:none;" d="M104 121L104 122L143 122C132.726 117.689 115.172 121 104 121M160 121L160 122L200 122C189.488 117.589 171.434 121 160 121M101 122L102 123L101 122M201 122L202 123L201 122M100 123L101 124L100 123z"/>
<path style="fill:#55e361; stroke:none;" d="M203 123L204 124L203 123z"/>
<path style="fill:#a2e5cd; stroke:none;" d="M98 125L99 126L98 125M204 125L205 126L204 125z"/>
<path style="fill:#55e361; stroke:none;" d="M97 126L98 127L97 126z"/>
<path style="fill:#a2e5cd; stroke:none;" d="M205.333 126.667L205.667 127.333L205.333 126.667M97.3333 127.667L97.6667 128.333L97.3333 127.667M97.3333 131.667L97.6667 132.333L97.3333 131.667M205.333 131.667L205.667 132.333L205.333 131.667z"/>
<path style="fill:#55e361; stroke:none;" d="M205 133L206 134L205 133z"/>
<path style="fill:#a2e5cd; stroke:none;" d="M98 134L99 135L98 134M204 134L205 135L204 134M99 135L100 136L99 135M100 136L101 137L100 136M202 136L203 137L202 136M102 137L103 138L102 137M200 137L201 138L200 137z"/>
<path style="fill:#55e361; stroke:none;" d="M201 137L202 138L201 137M105 138L105 139L117 139L105 138z"/>
<path style="fill:#a2e5cd; stroke:none;" d="M134 138L134 141L135 141L134 138z"/>
<path style="fill:#55e361; stroke:none;" d="M135 138L135 139L153 139L135 138z"/>
<path style="fill:#a2e5cd; stroke:none;" d="M153 138L153 139C157.913 139 165.041 137.436 168 142L169 142L169 138L153 138M186 138L186 139L198 139L186 138M117 139L117 142L118 142L117 139z"/>
<path style="fill:#01c4cc; stroke:none;" d="M135 139C136.084 152.62 143.082 163.309 151 174L152 174C159.954 163.26 166.91 152.696 168 139L135 139z"/>
<path style="fill:#a2e5cd; stroke:none;" d="M185 140L185 143L186 143L185 140z"/>
<path style="fill:#55e361; stroke:none;" d="M117 142L118 143L117 142M135 143L136 144L135 143M167 143L168 144L167 143M185 143L186 144L185 143z"/>
<path style="fill:#a2e5cd; stroke:none;" d="M135.333 144.667L135.667 145.333L135.333 144.667M167.333 144.667L167.667 145.333L167.333 144.667M118.333 145.667L118.667 146.333L118.333 145.667M184.333 146.667L184.667 147.333L184.333 146.667z"/>
<path style="fill:#55e361; stroke:none;" d="M118 147L119 148L118 147z"/>
<path style="fill:#a2e5cd; stroke:none;" d="M136 148L137 149L136 148M166.333 148.667L166.667 149.333L166.333 148.667z"/>
<path style="fill:#55e361; stroke:none;" d="M184 148L185 149L184 148z"/>
<path style="fill:#a2e5cd; stroke:none;" d="M119 150L120 151L119 150M183.333 150.667L183.667 151.333L183.333 150.667z"/>
<path style="fill:#55e361; stroke:none;" d="M119 151L120 152L119 151z"/>
<path style="fill:#a2e5cd; stroke:none;" d="M137 151L138 152L137 151M165 151L166 152L165 151M120.333 153.667L120.667 154.333L120.333 153.667M138.333 153.667L138.667 154.333L138.333 153.667z"/>
<path style="fill:#55e361; stroke:none;" d="M164 153L165 154L164 153z"/>
<path style="fill:#a2e5cd; stroke:none;" d="M164 154L165 155L164 154M182 154L183 155L182 154z"/>
<path style="fill:#55e361; stroke:none;" d="M182 155L183 156L182 155z"/>
<path style="fill:#a2e5cd; stroke:none;" d="M121.333 156.667L121.667 157.333L121.333 156.667M139 156L140 157L139 156M163 156L164 157L163 156M181 157L182 158L181 157M140 158L141 159L140 158M162 158L163 159L162 158M122 159L123 160L122 159M180.333 159.667L180.667 160.333L180.333 159.667M141 160L142 161L141 160M161 160L162 161L161 160M123 161L124 162L123 161z"/>
<path style="fill:#55e361; stroke:none;" d="M142 161L143 162L142 161M123 162L124 163L123 162z"/>
<path style="fill:#a2e5cd; stroke:none;" d="M160 162L161 163L160 162M179 162L180 163L179 162M143 163L144 164L143 163M159 163L160 164L159 163M124 164L125 165L124 164M178 164L179 165L178 164M144 165L145 166L144 165M158 165L159 166L158 165M125 166L126 167L125 166z"/>
<path style="fill:#55e361; stroke:none;" d="M145 166L146 167L145 166M157 166L158 167L157 166z"/>
<path style="fill:#a2e5cd; stroke:none;" d="M177 166L178 167L177 166M126 168L127 169L126 168M146 168L147 169L146 168M156 168L157 169L156 168M176 168L177 169L176 168M147 169L148 170L147 169M155 169L156 170L155 169z"/>
<path style="fill:#55e361; stroke:none;" d="M127 170L128 171L127 170z"/>
<path style="fill:#a2e5cd; stroke:none;" d="M148 170L149 171L148 170M154 170L155 171L154 170M175 170L176 171L175 170M128 171L129 172L128 171z"/>
<path style="fill:#55e361; stroke:none;" d="M149 171L150 172L149 171M153 171L154 172L153 171z"/>
<path style="fill:#a2e5cd; stroke:none;" d="M174 171L175 172L174 171M129 173L130 174L129 173M152 173L153 174L152 173M173 173L174 174L173 173M130 174L131 175L130 174z"/>
<path style="fill:#55e361; stroke:none;" d="M172 175L173 176L172 175z"/>
<path style="fill:#a2e5cd; stroke:none;" d="M131 176L132 177L131 176M171 176L172 177L171 176M132 177L133 178L132 177M170 177L171 178L170 177M169 179L170 180L169 179M134 180L135 181L134 180M168 180L169 181L168 180M135 181L136 182L135 181M167 181L168 182L167 181M136 182L137 183L136 182M166 182L167 183L166 182M137 183L138 184L137 183z"/>
<path style="fill:#55e361; stroke:none;" d="M136 185L137 186L136 185z"/>
<path style="fill:#a2e5cd; stroke:none;" d="M137 185L138 186L137 185M166 185L167 186L166 185z"/>
<path style="fill:#55e361; stroke:none;" d="M134 186L135 187L134 186z"/>
<path style="fill:#a2e5cd; stroke:none;" d="M135 186L136 187L135 186M168 186L169 187L168 186z"/>
<path style="fill:#55e361; stroke:none;" d="M132 187L133 188L132 187z"/>
<path style="fill:#a2e5cd; stroke:none;" d="M133 187L134 188L133 187M170 187L171 188L170 187z"/>
<path style="fill:#55e361; stroke:none;" d="M130 188L131 189L130 188z"/>
<path style="fill:#a2e5cd; stroke:none;" d="M131 188L132 189L131 188M172 188L173 189L172 188M128 189L129 190L128 189M174 189L175 190L174 189z"/>
<path style="fill:#55e361; stroke:none;" d="M175 189L176 190L175 189z"/>
<path style="fill:#a2e5cd; stroke:none;" d="M125 190L126 191L125 190M177 190L178 191L177 190z"/>
<path style="fill:#55e361; stroke:none;" d="M178 190L179 191L178 190M121 191L122 192L121 191z"/>
<path style="fill:#a2e5cd; stroke:none;" d="M122.667 191.333L123.333 191.667L122.667 191.333M180.667 191.333L181.333 191.667L180.667 191.333M117.667 192.333L118.333 192.667L117.667 192.333M184.667 192.333L185.333 192.667L184.667 192.333z"/>
<path style="fill:#55e361; stroke:none;" d="M186 192L187 193L186 192M107.667 193.333L108.333 193.667L107.667 193.333z"/>
<path style="fill:#a2e5cd; stroke:none;" d="M109 193L109 194L115 194L109 193M189 193L189 194L196 194L189 193z"/>
<path style="fill:#55e361; stroke:none;" d="M196 193L197 194L196 193z"/>
<path style="fill:#a2e5cd; stroke:none;" d="M102.667 194.333L103.333 194.667L102.667 194.333M199.667 194.333L200.333 194.667L199.667 194.333z"/>
<path style="fill:#55e361; stroke:none;" d="M100 195L101 196L100 195z"/>
<path style="fill:#a2e5cd; stroke:none;" d="M202 195L203 196L202 195M99 196L100 197L99 196M151 196L152 197L151 196M203 196L204 197L203 196z"/>
<path style="fill:#55e361; stroke:none;" d="M98 197L99 198L98 197z"/>
<path style="fill:#a2e5cd; stroke:none;" d="M149 197L150 198L149 197M153 197L154 198L153 197M204 197L205 198L204 197M147 198L148 199L147 198M155 198L156 199L155 198M97.3333 199.667L97.6667 200.333L97.3333 199.667z"/>
<path style="fill:#55e361; stroke:none;" d="M146 199L147 200L146 199M156 199L157 200L156 199z"/>
<path style="fill:#a2e5cd; stroke:none;" d="M205.333 199.667L205.667 200.333L205.333 199.667M144 200L145 201L144 200M158 200L159 201L158 200M142 201L143 202L142 201M160 201L161 202L160 201M140 202L141 203L140 202z"/>
<path style="fill:#55e361; stroke:none;" d="M141 202L142 203L141 202M161 202L162 203L161 202z"/>
<path style="fill:#a2e5cd; stroke:none;" d="M162 202L163 203L162 202M97.3333 203.667L97.6667 204.333L97.3333 203.667M138 203L139 204L138 203M164 203L165 204L164 203M135 204L136 205L135 204z"/>
<path style="fill:#55e361; stroke:none;" d="M136 204L137 205L136 204z"/>
<path style="fill:#a2e5cd; stroke:none;" d="M166.667 204.333L167.333 204.667L166.667 204.333M205.333 204.667L205.667 205.333L205.333 204.667z"/>
<path style="fill:#55e361; stroke:none;" d="M97 205L98 206L97 205z"/>
<path style="fill:#a2e5cd; stroke:none;" d="M133 205L134 206L133 205M169 205L170 206L169 205M98 206L99 207L98 206M130.667 206.333L131.333 206.667L130.667 206.333M171.667 206.333L172.333 206.667L171.667 206.333M126.667 207.333L127.333 207.667L126.667 207.333z"/>
<path style="fill:#55e361; stroke:none;" d="M128 207L129 208L128 207z"/>
<path style="fill:#a2e5cd; stroke:none;" d="M174.667 207.333L175.333 207.667L174.667 207.333z"/>
<path style="fill:#55e361; stroke:none;" d="M204 207L205 208L204 207M99 208L100 209L99 208z"/>
<path style="fill:#a2e5cd; stroke:none;" d="M122.667 208.333L123.333 208.667L122.667 208.333z"/>
<path style="fill:#55e361; stroke:none;" d="M124 208L125 209L124 208M178 208L179 209L178 208z"/>
<path style="fill:#a2e5cd; stroke:none;" d="M179.667 208.333L180.333 208.667L179.667 208.333M203 208L204 209L203 208z"/>
<path style="fill:#55e361; stroke:none;" d="M360 512L360 434L361 394L342 394C340.466 400.69 338.983 412.808 333.722 417.566C328.47 422.316 317.567 417.746 316.411 410.999C315.112 403.416 321.326 391.216 323.67 384C330.122 364.13 336.361 344.075 342.141 324C345.293 313.055 347.173 302.923 360 301L360 241L361 208C339.642 208 318.283 208.743 297 208.996C262.443 209.407 222.38 207.185 210.921 249C207.668 260.868 209 273.811 209 286C209 302.35 208 318.613 208 335C208 344.063 210.756 358.467 207.397 366.91C205.517 371.634 198.944 374.759 195 377.579L165 399C159.258 403.096 152.965 407.375 152.2 415C151.279 424.172 158.341 429.636 165 434.421C177.936 443.714 191.335 452.473 203.985 462.155C210.376 467.048 210.503 474.127 213.785 481C218.152 490.148 224.585 497.593 233 503.251C248.088 513.396 264.691 512 282 512L360 512z"/>
<path style="fill:#02ab5f; stroke:none;" d="M360 301C372.832 301.595 375.092 311.416 378.28 322C384.616 343.031 390.977 364.075 397.656 385C399.772 391.629 407.217 406.367 403.958 412.981C400.739 419.512 390.331 422.085 385.703 415.891C378.617 406.408 384.189 393.976 369 394C366.765 394.004 363.491 393.532 361.603 395.028C356.963 398.703 360 418.339 360 424L360 512L438 512C458.147 512 476.462 513.156 492.999 499.535C514.104 482.152 512 457.579 512 433L512 290C512 267.664 514.781 245.083 498.816 227.001C474.534 199.499 428.816 208 396 208L370 208C367.383 208.001 362.891 207.25 361.028 209.603C357.427 214.15 360 228.343 360 234L360 301z"/>
<path style="fill:#a2e5cd; stroke:none;" d="M101 209L102 210L101 209M118.667 209.333L119.333 209.667L118.667 209.333z"/>
<path style="fill:#55e361; stroke:none;" d="M120 209L121 210L120 209M182 209L183 210L182 209z"/>
<path style="fill:#a2e5cd; stroke:none;" d="M183.667 209.333L184.333 209.667L183.667 209.333M201 209L202 210L201 209M103 210L103 211L111 211L103 210z"/>
<path style="fill:#55e361; stroke:none;" d="M111.667 210.333L112.333 210.667L111.667 210.333M190 210L191 211L190 210z"/>
<path style="fill:#a2e5cd; stroke:none;" d="M191 210L191 211L200 211L191 210z"/>
<path style="fill:#55e361; stroke:none;" d="M200 210L201 211L200 210z"/>
<path style="fill:#fdfdfd; stroke:none;" d="M0 259L0 512L253 512L253 511C236.965 507.681 223.181 497.413 215.312 483C212.372 477.614 211.799 470.104 208.262 465.3C200.923 455.334 185.038 448.019 175 440.859C166.65 434.902 149.796 426.687 152.548 414C154.136 406.679 161.337 402.329 167 398.291C178.817 389.865 197.551 381.026 206.397 369.535C209.731 365.203 208 356.185 208 351L208 304L88 304C66.8205 304 43.6587 306.537 25 294.452C10.8238 285.27 7.45057 272.707 0 259z"/>
<path style="fill:#a2e5cd; stroke:none;" d="M356 301L356 302L365 302L356 301z"/>
<path style="fill:#55e361; stroke:none;" d="M365 301L366 302L365 301z"/>
<path style="fill:#a2e5cd; stroke:none;" d="M353 302L354 303L353 302z"/>
<path style="fill:#fdfdfd; stroke:none;" d="M354.004 302.653C345.588 305.329 344.675 316.778 342.33 324C335.438 345.226 329.442 366.741 322.656 388C320.654 394.273 313.266 408.694 317.746 414.66C320.821 418.754 330.214 421.061 334.297 417.258C339.939 412.002 336.648 399.319 343.303 395.028C349.207 391.221 364.085 393.953 371 394.001C373.867 394.021 377.119 393.805 379.066 396.318C385.196 404.231 381.225 423.297 397 418.347C410.678 414.055 400.782 397.171 398.141 388C392.65 368.928 386.799 349.876 380.67 331C378.257 323.571 377.119 313.711 372.911 307.105C369.282 301.408 359.965 300.757 354.004 302.653z"/>
<path style="fill:#a2e5cd; stroke:none;" d="M367 302L368 303L367 302z"/>
<path style="fill:#55e361; stroke:none;" d="M368 302L369 303L368 302z"/>
<path style="fill:#a2e5cd; stroke:none;" d="M351 303L352 304L351 303M369 303L370 304L369 303M349 304L350 305L349 304z"/>
<path style="fill:#55e361; stroke:none;" d="M371 304L372 305L371 304z"/>
<path style="fill:#a2e5cd; stroke:none;" d="M348 305L349 306L348 305z"/>
<path style="fill:#55e361; stroke:none;" d="M372 305L373 306L372 305z"/>
<path style="fill:#a2e5cd; stroke:none;" d="M347 307L348 308L347 307M373 307L374 308L373 307M346.333 309.667L346.667 310.333L346.333 309.667z"/>
<path style="fill:#55e361; stroke:none;" d="M374 309L375 310L374 309z"/>
<path style="fill:#a2e5cd; stroke:none;" d="M374 310L375 311L374 310M345 313L346 314L345 313M375.333 313.667L375.667 314.333L375.333 313.667M344 316L345 317L344 316M376.333 316.667L376.667 317.333L376.333 316.667M343.333 319.667L343.667 320.333L343.333 319.667z"/>
<path style="fill:#55e361; stroke:none;" d="M377 319L378 320L377 319z"/>
<path style="fill:#a2e5cd; stroke:none;" d="M377 320L378 321L377 320M342.333 322.667L342.667 323.333L342.333 322.667z"/>
<path style="fill:#55e361; stroke:none;" d="M378 322L379 323L378 322z"/>
<path style="fill:#a2e5cd; stroke:none;" d="M378 323L379 324L378 323M341 326L342 327L341 326M379.333 326.667L379.667 327.333L379.333 326.667M340 329L341 330L340 329M360 329L361 330L360 329M380.333 329.667L380.667 330.333L380.333 329.667z"/>
<path style="fill:#55e361; stroke:none;" d="M360 330L361 331L360 330z"/>
<path style="fill:#a2e5cd; stroke:none;" d="M359 331L360 332L359 331z"/>
<path style="fill:#02ab5f; stroke:none;" d="M360 331L360 377L374 377C369.989 362.866 367.808 343.423 360 331z"/>
<path style="fill:#a2e5cd; stroke:none;" d="M361.333 331.667L361.667 332.333L361.333 331.667M339.333 332.667L339.667 333.333L339.333 332.667z"/>
<path style="fill:#55e361; stroke:none;" d="M359 332L347 377L360 377C360 364.258 363.91 343.701 359 332M381 332L382 333L381 332M361 333L362 334L361 333z"/>
<path style="fill:#a2e5cd; stroke:none;" d="M381 333L382 334L381 333M358.333 334.667L358.667 335.333L358.333 334.667M338.333 335.667L338.667 336.333L338.333 335.667M362.333 335.667L362.667 336.333L362.333 335.667z"/>
<path style="fill:#55e361; stroke:none;" d="M382 335L383 336L382 335z"/>
<path style="fill:#a2e5cd; stroke:none;" d="M382 336L383 337L382 336M357 338L358 339L357 338M337 339L338 340L337 339M363 339L364 340L363 339M383.333 339.667L383.667 340.333L383.333 339.667z"/>
<path style="fill:#55e361; stroke:none;" d="M363 340L364 341L363 340z"/>
<path style="fill:#a2e5cd; stroke:none;" d="M356.333 341.667L356.667 342.333L356.333 341.667M336 342L337 343L336 342M364.333 342.667L364.667 343.333L364.333 342.667M384.333 342.667L384.667 343.333L384.333 342.667M335.333 345.667L335.667 346.333L335.333 345.667M355 345L356 346L355 345z"/>
<path style="fill:#55e361; stroke:none;" d="M385 345L386 346L385 345z"/>
<path style="fill:#a2e5cd; stroke:none;" d="M365 346L366 347L365 346M385 346L386 347L385 346z"/>
<path style="fill:#55e361; stroke:none;" d="M365 347L366 348L365 347z"/>
<path style="fill:#a2e5cd; stroke:none;" d="M334.333 348.667L334.667 349.333L334.333 348.667M354.333 348.667L354.667 349.333L354.333 348.667z"/>
<path style="fill:#55e361; stroke:none;" d="M386 348L387 349L386 348z"/>
<path style="fill:#a2e5cd; stroke:none;" d="M366.333 349.667L366.667 350.333L366.333 349.667M386 349L387 350L386 349M333 352L334 353L333 352M353 352L354 353L353 352M387.333 352.667L387.667 353.333L387.333 352.667M367 353L368 354L367 353z"/>
<path style="fill:#55e361; stroke:none;" d="M367 354L368 355L367 354z"/>
<path style="fill:#a2e5cd; stroke:none;" d="M332 355L333 356L332 355M352.333 355.667L352.667 356.333L352.333 355.667M388.333 355.667L388.667 356.333L388.333 355.667M368.333 356.667L368.667 357.333L368.333 356.667M331.333 358.667L331.667 359.333L331.333 358.667z"/>
<path style="fill:#55e361; stroke:none;" d="M389 358L390 359L389 358z"/>
<path style="fill:#a2e5cd; stroke:none;" d="M351 359L352 360L351 359M389 359L390 360L389 359M369 360L370 361L369 360M330.333 361.667L330.667 362.333L330.333 361.667z"/>
<path style="fill:#55e361; stroke:none;" d="M369 361L370 362L369 361M390 361L391 362L390 361z"/>
<path style="fill:#a2e5cd; stroke:none;" d="M350.333 362.667L350.667 363.333L350.333 362.667M390 362L391 363L390 362M370.333 363.667L370.667 364.333L370.333 363.667M329 365L330 366L329 365M391.333 365.667L391.667 366.333L391.333 365.667M349.333 366.667L349.667 367.333L349.333 366.667M371 367L372 368L371 367M328 368L329 369L328 368z"/>
<path style="fill:#55e361; stroke:none;" d="M371 368L372 369L371 368z"/>
<path style="fill:#a2e5cd; stroke:none;" d="M392.333 368.667L392.667 369.333L392.333 368.667M348.333 369.667L348.667 370.333L348.333 369.667M372.333 370.667L372.667 371.333L372.333 370.667M327.333 371.667L327.667 372.333L327.333 371.667z"/>
<path style="fill:#55e361; stroke:none;" d="M393 371L394 372L393 371z"/>
<path style="fill:#a2e5cd; stroke:none;" d="M393 372L394 373L393 372M347.333 373.667L347.667 374.333L347.333 373.667M326.333 374.667L326.667 375.333L326.333 374.667M373 374L374 375L373 374z"/>
<path style="fill:#55e361; stroke:none;" d="M394 374L395 375L394 374M373 375L374 376L373 375z"/>
<path style="fill:#a2e5cd; stroke:none;" d="M394 375L395 376L394 375M346 376C350.347 380.975 367.53 378 374 378L374 377L346 376M325 378L326 379L325 378M395.333 378.667L395.667 379.333L395.333 378.667M324 381L325 382L324 381M396.333 381.667L396.667 382.333L396.333 381.667M323.333 384.667L323.667 385.333L323.333 384.667z"/>
<path style="fill:#55e361; stroke:none;" d="M397 384L398 385L397 384z"/>
<path style="fill:#a2e5cd; stroke:none;" d="M397 385L398 386L397 385M322.333 387.667L322.667 388.333L322.333 387.667z"/>
<path style="fill:#55e361; stroke:none;" d="M398 387L399 388L398 387z"/>
<path style="fill:#a2e5cd; stroke:none;" d="M398.333 388.667L398.667 389.333L398.333 388.667M321 391L322 392L321 391M399.333 391.667L399.667 392.333L399.333 391.667M320 394L321 395L320 394z"/>
<path style="fill:#55e361; stroke:none;" d="M378 394L379 395L378 394z"/>
<path style="fill:#a2e5cd; stroke:none;" d="M400.333 394.667L400.667 395.333L400.333 394.667M341.333 395.667L341.667 396.333L341.333 395.667M379.333 395.667L379.667 396.333L379.333 395.667M319.333 397.667L319.667 398.333L319.333 397.667z"/>
<path style="fill:#55e361; stroke:none;" d="M379 397L380 398L379 397M401 397L402 398L401 397z"/>
<path style="fill:#a2e5cd; stroke:none;" d="M401 398L402 399L401 398M340 399L341 400L340 399M380.333 399.667L380.667 400.333L380.333 399.667M318.333 400.667L318.667 401.333L318.333 400.667z"/>
<path style="fill:#55e361; stroke:none;" d="M402 400L403 401L402 400z"/>
<path style="fill:#a2e5cd; stroke:none;" d="M402.333 401.667L402.667 402.333L402.333 401.667M339.333 402.667L339.667 403.333L339.333 402.667M381.333 402.667L381.667 403.333L381.333 402.667M317 404L318 405L317 404z"/>
<path style="fill:#55e361; stroke:none;" d="M381 404L382 405L381 404z"/>
<path style="fill:#a2e5cd; stroke:none;" d="M403.333 404.667L403.667 405.333L403.333 404.667M338 406L339 407L338 406M382.333 406.667L382.667 407.333L382.333 406.667M316.333 407.667L316.667 408.333L316.333 407.667z"/>
<path style="fill:#55e361; stroke:none;" d="M404 407L405 408L404 407z"/>
<path style="fill:#a2e5cd; stroke:none;" d="M404 408L405 409L404 408M337.333 409.667L337.667 410.333L337.333 409.667M383.333 409.667L383.667 410.333L383.333 409.667z"/>
<path style="fill:#55e361; stroke:none;" d="M383 411L384 412L383 411z"/>
<path style="fill:#a2e5cd; stroke:none;" d="M316 413L317 414L316 413M336 413L337 414L336 413M384.333 413.667L384.667 414.333L384.333 413.667M404 413L405 414L404 413M403 414L404 415L403 414M402 415L403 416L402 415M319 416L320 417L319 416M335 416L336 417L335 416M385 416L386 417L385 416M401 416L402 417L401 416M320 417L321 418L320 417M399 417L400 418L399 417z"/>
<path style="fill:#55e361; stroke:none;" d="M400 417L401 418L400 417z"/>
<path style="fill:#a2e5cd; stroke:none;" d="M323 418L324 419L323 418M333 418L334 419L333 418M387 418L388 419L387 418M397 418L398 419L397 418M326 419L326 420L332 420L326 419M389 419L389 420L394 420L389 419z"/>
<path style="fill:#55e361; stroke:none;" d="M394 419L395 420L394 419z"/>
<path style="fill:#fdfdfd; stroke:none;" d="M511 467C509.174 487.909 487.909 509.175 467 511L467 512L512 512C512 499.258 515.91 478.701 511 467z"/>
</svg>
